<svg xmlns="http://www.w3.org/2000/svg" class="scalingsymbol" viewBox="72 72 880 880">
    <defs>
        <linearGradient id="plate-fill" x1="-.2" y1="-.2" x2=".8" y2=".8">
            <stop offset="0" stop-color="#5a62c4"/>
            <stop offset="1" stop-color="#3940ab"/>
        </linearGradient>
        <linearGradient id="plate-shimmer" x1="-25%" y1="-25%" x2="65%" y2="65%" gradientTransform="translate(10, 0)">
            <animateTransform attributeName="gradientTransform" type="translate" from="-4 0" to="6 0" begin="0s"
                              dur="1.8s" repeatCount="indefinite"/>
            <stop offset="0" stop-color="white" stop-opacity="0"/>
            <stop offset="0.4" stop-color="white" stop-opacity=".15"/>
            <stop offset="0.6" stop-color="white" stop-opacity=".15"/>
            <stop offset="1" stop-color="white" stop-opacity="0"/>
        </linearGradient>
        <linearGradient id="large-person-shimmer" x1="-8.5%" y1="-8%" x2="50%" y2="60%"
                        gradientTransform="translate(10, 0)">
            <animateTransform attributeName="gradientTransform" type="translate" from="-4.15 0" to="5.85 0" begin=".2s"
                              dur="1.8s" repeatCount="indefinite"/>
            <stop offset="0" stop-color="#7b83eb" stop-opacity="1"/>
            <stop offset=".4" stop-color="#8890ed" stop-opacity="1"/>
            <stop offset=".6" stop-color="#8890ed" stop-opacity="1"/>
            <stop offset="1" stop-color="#7b83eb" stop-opacity="1"/>
        </linearGradient>
        <linearGradient id="small-person-shimmer" x1="13.64%" y1="-30%" x2="60%" y2="50%"
                        gradientTransform="translate(10, 0)">
            <animateTransform attributeName="gradientTransform" type="translate" from="-6 0" to="8 0" begin=".4s"
                              dur="1.8s" repeatCount="indefinite"/>
            <stop offset="0" stop-color="#5059c9" stop-opacity="1"/>
            <stop offset="0.4" stop-color="#626acf" stop-opacity="1"/>
            <stop offset="0.6" stop-color="#626acf" stop-opacity="1"/>
            <stop offset="1" stop-color="#5059c9" stop-opacity="1"/>
        </linearGradient>
        <style>.cls-1{fill:#5059c9} .cls-2{fill:#7b83eb}</style>
        <filter id="person-shadow" x="-50%" y="-50%" width="300%" height="300%">
            <feGaussianBlur in="SourceAlpha" stdDeviation="25"/>
            <feOffset dy="25"/>
            <feComponentTransfer>
                <feFuncA type="linear" slope=".25"/>
            </feComponentTransfer>
            <feMerge>
                <feMergeNode/>
                <feMergeNode in="SourceGraphic"/>
            </feMerge>
        </filter>
        <filter id="back-plate-shadow" x="-50%" y="-50%" width="300%" height="300%">
            <feGaussianBlur in="SourceAlpha" stdDeviation="24"/>
            <feOffset dx="2" dy="24"/>
            <feComponentTransfer>
                <feFuncA type="linear" slope=".6"/>
            </feComponentTransfer>
            <feMerge>
                <feMergeNode/>
                <feMergeNode in="SourceGraphic"/>
            </feMerge>
        </filter>
        <filter id="tee-shadow" x="-50%" y="-50%" width="250%" height="250%">
            <feGaussianBlur in="SourceAlpha" stdDeviation="12"/>
            <feOffset dx="10" dy="20"/>
            <feComponentTransfer>
                <feFuncA type="linear" slope=".2"/>
            </feComponentTransfer>
            <feMerge>
                <feMergeNode/>
                <feMergeNode in="SourceGraphic"/>
            </feMerge>
        </filter>
        <clipPath id="back-plate-clip">
            <path d="M684 432H512v-49.143A112 112 0 1 0 416 272a111.556 111.556 0 0 0 10.785 48H160a32.094 32.094 0 0 0-32 32v320a32.094 32.094 0 0 0 32 32h178.67c15.236 90.8 94.2 160 189.33 160 106.039 0 192-85.961 192-192V468a36 36 0 0 0-36-36z"
                  fill="#fff"/>
        </clipPath>
    </defs>
    <g id="small_person" filter="url(#person-shadow)">
        <g id="small_person_scale_wrapper">
            <path id="small_person_path" fill="url(#small-person-shimmer)"
                  d="M692 432h168a36 36 0 0 1 36 36v164a120 120 0 0 1-120 120 120 120 0 0 1-120-120V468a36 36 0 0 1 36-36z M 696,304 a 80,80 0 1,0 160,0 a 80,80 0 1,0 -160,0 z"/>
        </g>
    </g>
    <g id="large_person" filter="url(#person-shadow)">
        <g id="large_person_scale_wrapper">
            <path id="large_person_path" data-name="Body" fill="url(#large-person-shimmer)"
                  d="M372 432h312a36 36 0 0 1 36 36v204a192 192 0 0 1-192 192 192 192 0 0 1-192-192V468a36 36 0 0 1 36-36z M 416, 272 a 112,112 0 1,0 224,0 a 112,112 0 1,0 -224,0 z"/>
        </g>
    </g>
    <g id="shield" clip-path="url(#back-plate-clip)">
        <rect id="back_plate" x="128" y="320" fill="url(#plate-fill)" width="384" height="384" rx="32" ry="32"
              filter="url(#back-plate-shadow)"/>
        <rect id="back_plate_shimmer" fill="url(#plate-shimmer)" x="128" y="320" width="384" height="384" rx="32"
              ry="32"/>
        <path id="letter_T" d="M399.365 445.855h-60.293v164.2h-38.418v-164.2h-60.02V414h158.73z"
              filter="url(#tee-shadow)" fill="#fff"/>
    </g>
</svg>